<svg width="120" height="72" viewBox="0 0 120 72" fill="none" xmlns="http://www.w3.org/2000/svg">
<path d="M119.453 65.693C119.566 66.2037 119.465 66.7368 119.172 67.1754C118.878 67.6141 118.416 67.9222 117.888 68.0318L101.945 71.3365L101.091 67.483L115.041 64.5924L112.052 51.1041L116.036 50.2779L119.453 65.693ZM111.028 62.3941C110.018 61.6619 109.886 60.5216 110.951 61.356C111.144 61.5079 110.358 61.2925 110.572 61.5318C110.965 61.9697 111.589 61.7293 111.913 62.3053C111.97 62.4092 111.093 62.4364 111.028 62.3941ZM11.2332 0.271082C15.2241 0.126455 19.7173 -0.146884 23.9188 0.0982307C24.7425 0.146463 25.5705 0.261118 26.3084 0.391199C26.5032 0.42513 26.6397 0.452006 26.8778 0.494715C27.1192 0.538264 27.3503 0.583846 27.5702 0.629481C28.0103 0.720836 28.4072 0.813924 28.7665 0.901942C28.9321 0.942909 28.8919 0.740336 28.9266 0.732996C29.1867 0.69386 29.3411 0.78995 29.3915 0.884364C29.4502 0.982948 29.468 1.09972 29.6639 1.21444C30.0532 1.4453 30.4 1.69638 30.7108 2.00546C31.139 2.41373 31.4601 2.95072 31.5702 3.52304C31.6812 4.08126 31.6065 4.62863 31.4481 5.12264C31.3173 5.52893 31.156 5.86888 30.9627 6.2203C30.6215 6.80318 31.292 6.46201 30.744 6.88632C30.71 6.90826 30.6337 6.68132 30.5282 6.78964C30.2953 7.0341 29.8814 7.57677 29.6659 7.78378C29.2448 8.19154 29.2102 8.22441 28.87 8.55819C28.424 8.99131 27.6642 9.54484 27.2206 9.98104C27.1165 10.0834 27.3937 10.1099 27.2381 10.2877C27.0835 10.4653 26.5819 10.8603 26.3797 10.9635C26.1801 11.0654 26.1521 10.8857 26.0995 10.8814C25.6502 10.8557 25.352 11.6316 25.2889 11.6939C24.068 12.882 22.7465 13.569 21.4598 14.525C20.478 15.2541 19.511 16.063 18.5653 16.7476C17.4682 17.5405 16.4729 18.1444 15.4286 18.9576C15.3188 19.0432 15.5903 19.1321 15.4569 19.2369C14.0402 20.345 12.5933 21.4398 11.1424 22.4391C10.9969 22.539 11.04 22.2348 10.8846 22.3267C9.89636 22.9223 8.36889 23.7328 8.48422 24.8668C7.90736 25.3573 7.2733 25.9353 6.69907 26.2789C6.31367 26.5184 6.43658 26.0536 6.1434 26.5133C6.0786 26.6163 6.32862 26.6347 6.22251 26.7779C5.76339 27.3954 5.26895 27.8856 4.89145 28.5758C4.82243 28.7072 4.98852 28.7778 4.99204 28.8297C5.00153 29.2557 4.35962 29.47 4.27329 29.5572C3.60455 30.2281 3.39332 30.9068 3.20102 31.6676C3.15812 31.8514 3.43713 31.6898 3.40805 31.8609C3.26383 32.7278 3.34735 33.5013 3.65805 34.2555C3.72581 34.4191 3.47026 34.3825 3.49497 34.4683C3.63677 34.8662 3.99713 34.709 4.20981 35.0699C4.25876 35.1472 4.09963 35.229 4.09653 35.2545C4.0913 35.6793 4.50823 35.486 4.5643 35.5191C5.17769 35.8917 5.5578 36.658 6.27426 36.9674C6.36103 37.0039 6.277 36.7131 6.51352 36.8258C8.25075 37.6378 10.0441 38.2569 12.1288 38.94C12.4091 39.0337 12.172 39.1449 12.1834 39.1705C12.3882 39.5442 12.6692 39.173 12.7625 39.1764C13.4972 39.2222 14.1466 39.7121 14.7762 39.3131C17.6257 39.9613 19.6202 40.0637 22.5194 40.483C23.2911 40.5966 24.0416 40.7131 24.7938 40.8502C24.8355 40.8584 24.7515 41.0621 24.8358 41.0758C25.859 41.2307 25.6739 40.8964 26.3407 40.5084C26.5056 40.4117 27.0102 40.8891 27.0623 40.9254C27.2303 41.0538 27.06 41.366 27.1151 41.3922C27.5852 41.5848 27.4973 40.5564 28.1092 40.5406C28.1279 40.5429 28.0541 40.7333 28.1053 40.7516C28.2673 40.806 28.4236 40.7267 28.5819 40.7857C28.9416 40.9229 29.1042 41.4176 29.6454 41.0963C29.7131 41.0541 29.5754 40.4791 30.1248 40.4713C30.3436 40.4705 31.3097 40.3845 31.5877 40.3951C31.8596 40.4076 31.6988 40.6073 31.7137 40.6187C32.4721 40.7967 32.2041 40.9266 32.6112 41.2555C33.0202 41.5811 32.8236 40.7222 32.9627 40.607C33.1028 40.494 33.6662 40.6346 33.8084 40.6891C33.9496 40.7438 33.7994 40.8828 33.9217 40.9088C34.7373 41.0732 34.2114 40.4352 34.4491 40.2642C35.0069 39.8599 35.5691 40.4374 36.1336 40.4205C36.2854 40.4156 36.1429 40.2869 36.2733 40.2535C36.7938 40.1239 37.1431 40.2759 37.7166 39.9996C37.8107 39.9545 38.2369 39.4942 38.5965 39.7271C38.6472 39.7612 38.5467 39.9405 38.7772 39.941C39.1217 39.9418 39.7341 39.8801 40.0887 39.7691C40.3504 39.687 40.0024 39.4725 40.3524 39.5006C40.5079 39.5134 40.2556 39.711 40.5457 39.7223C40.8359 39.7332 41.5463 39.6144 41.8192 39.567C42.0899 39.5196 41.9117 39.3435 41.9305 39.3258C42.0513 39.2282 42.5597 39.0522 42.6092 39.0445C44.9431 38.6682 47.1449 38.7282 49.4334 38.442C49.6109 38.4201 49.4792 38.2189 49.5038 38.2105C50.1155 38.0772 49.6698 38.6766 50.1112 38.8375C50.0211 38.4103 50.2805 38.4697 50.7176 38.398C50.9283 38.3633 50.805 38.2027 50.8231 38.1842C51.126 37.9139 51.3524 38.232 51.412 38.2974C51.6263 38.5354 51.8379 38.2366 51.9842 38.3961C52.1294 38.5557 51.8175 38.8095 52.2323 38.7935C52.3451 38.6352 52.0219 38.2387 52.3387 38.1637C53.5482 37.8702 55.7996 38.2255 56.7459 38.3189C57.7108 38.4045 58.0326 38.4045 58.575 38.5055C59.568 38.6968 59.2295 38.3644 59.8778 38.2935C60.5346 38.2286 60.139 38.9285 60.2118 39.0973C60.2836 39.2655 60.3987 39.1154 60.494 39.2144C60.5893 39.3141 60.3482 39.3934 60.5926 39.4566C60.8362 39.5182 61.5636 39.3324 61.6805 39.1822C61.9236 38.862 61.6567 38.4476 62.326 38.6793C62.3644 38.693 62.2074 38.8649 62.3553 38.9078C63.5425 39.2425 64.7265 39.4731 65.8934 39.8609C66.0457 39.9129 65.8614 40.0932 65.9481 40.1266C66.869 40.4727 66.6093 40.0426 67.2332 39.7721C66.9911 40.2693 67.2045 40.6546 67.9432 40.8433C68.3868 40.958 68.3816 40.7142 68.6961 40.6246C68.7917 40.5977 69.0534 40.8344 69.1375 40.7428C69.415 40.4433 69.2304 39.9709 69.9373 40.3336C69.9682 40.3501 69.8112 40.5116 69.9207 40.5553C70.6364 40.8393 70.8306 40.5008 71.662 40.7037C72.2847 40.8541 73.2993 41.4219 74.0018 41.7017C73.7903 42.2697 74.5129 42.3699 74.9168 42.0699C75.3496 42.2402 75.8369 42.3917 76.2498 42.606C76.391 42.6792 76.2363 42.8065 76.2459 42.8326C76.4292 43.2172 76.7664 42.9138 76.8709 42.9342C78.0054 43.1989 78.7091 43.8112 79.8084 43.94C79.8475 43.9446 80.0665 43.5793 80.2137 43.9732C80.2226 44 79.8215 44.0404 80.2821 44.2496C80.7374 44.4562 81.5675 45.0588 82.2469 45.148C82.4164 45.1717 82.941 45.0314 83.1424 45.4156C83.1688 45.4673 83.0739 45.557 83.1053 45.6451C83.2095 45.9275 83.4924 45.5891 83.5702 46.0221C83.6481 46.4558 84.006 46.9186 84.7635 47.0016C84.7847 47.0036 85.095 46.7774 85.2831 46.8726C85.5871 47.0274 85.9967 47.3037 86.3241 47.4615C86.4795 47.5362 86.4739 47.3039 86.5018 47.3092C87.6007 47.7173 88.3183 48.2876 89.3993 48.9381C89.5926 49.0548 90.305 49.1055 90.5956 49.5142C90.9147 49.9639 89.9844 50.631 91.0995 50.9508C91.5469 51.0797 92.6994 50.2211 93.1063 51.2174C94.5419 51.8196 95.6521 52.8498 97.1961 53.4762C97.2684 53.5062 97.6462 53.3055 97.785 53.3922C97.9913 53.523 98.0211 53.7383 98.1659 53.8375C98.7726 54.2563 99.4338 54.4826 100.046 54.8795C100.278 55.0301 100.105 55.1306 100.383 55.3111C100.661 55.492 100.972 55.4103 101.302 55.7437C101.546 55.994 101.611 56.5907 101.937 56.859C102.198 56.4714 102.445 56.6352 102.963 56.8141C103.062 56.8482 103.056 56.6536 103.107 56.6617C103.319 56.6959 103.404 56.9074 103.612 56.9312C103.663 56.9372 103.749 56.8042 103.796 56.8004C104.192 56.7724 104.451 57.3605 104.495 57.4635C104.664 57.852 104.914 57.767 105.093 57.9918C105.271 58.2167 104.867 58.0968 105.102 58.315C105.586 58.7641 106.345 59.2245 106.876 59.5797C107.088 59.7205 107.06 59.4506 107.093 59.4635C107.566 59.708 107.894 60.1944 108.377 60.0055C108.084 61.1269 108.706 60.0955 109.232 60.7086C109.273 60.7578 109.051 61.232 108.813 61.1656C108.576 61.0987 108.369 60.7667 108.035 60.6881C107.954 60.6695 107.324 60.8353 107.259 60.8277C106.746 60.7653 107.116 60.082 107.119 60.0328C107.135 59.4947 106.422 59.6547 106.268 59.5982C105.615 59.3714 105.2 58.9741 104.673 58.7769C104.329 58.6485 104.026 59.0573 103.799 58.8941C103.044 58.3535 103.149 57.5824 102.097 57.648C101.872 57.663 101.731 58.2277 101.408 57.5133C101.392 57.4672 101.172 56.866 100.787 56.9244C100.739 56.9333 100.655 57.0712 100.606 57.0572C100.282 56.9606 100.164 56.7371 99.8309 56.606C99.4978 56.4751 99.0901 56.3349 98.7791 56.0836C98.5918 55.9319 98.4852 55.5169 98.4256 55.3951C98.2591 55.0481 97.7875 55.1725 97.7498 54.8512C97.7114 54.5277 98.2444 54.3869 97.8817 53.9781C97.6513 54.3301 97.3944 54.6796 97.1532 55.0279C96.1932 54.4438 95.204 53.7142 94.1991 53.1666C94.0733 53.099 94.0888 53.3663 93.951 53.2984C93.3711 53.0118 92.9616 52.5992 92.3582 52.3394C91.8598 52.1224 91.2307 52.0512 90.7176 51.8433C90.6481 51.26 89.8547 51.0204 89.3631 50.7135C89.1909 50.6058 89.2613 50.4989 89.1532 50.3951C88.7446 50.008 88.774 50.5013 88.6122 50.4928C87.9321 50.462 88.2879 49.5628 87.5829 49.232C87.538 49.2163 86.8636 49.4455 86.7889 49.4439C86.3057 49.4349 86.8032 49.252 86.576 49.0963C86.1613 48.813 85.9055 48.5507 85.325 48.4361C85.1534 48.4032 84.6628 48.5199 84.4754 48.1578C84.4495 48.109 84.5438 47.9664 84.5155 47.942C83.9967 47.5135 83.7554 47.9891 83.3475 47.9976C82.94 48.0061 82.5865 47.4405 82.5272 47.2974C82.372 46.927 82.7816 47.2828 82.8094 47.2672C83.1145 47.0553 82.7196 46.9346 82.4491 46.7828C82.6229 46.2886 82.2156 46.1399 82.1678 46.6275C82.1631 46.6809 82.4012 46.7354 82.4491 46.7828C81.99 47.1373 81.5369 47.0054 81.2596 46.3609C81.1254 46.0576 81.4596 45.9174 80.7069 45.6959C80.3687 45.598 80.3506 45.9804 80.0311 45.9508C79.3021 45.883 78.6099 45.2354 77.9491 45.0289C77.7108 44.9549 77.8629 45.2261 77.6981 45.1822C77.2668 45.0682 76.9023 44.768 76.4393 44.6724C76.398 44.667 76.4204 44.8929 76.284 44.8443C75.2248 44.4687 74.4548 44.0494 73.3182 43.6588C72.785 43.4749 71.8163 43.2795 71.2938 43.0953C70.3588 42.7636 69.2399 42.1347 68.4286 41.9976C67.8985 41.9071 67.9455 42.1329 67.6825 42.2105C67.1664 42.3582 66.5009 41.7001 66.412 41.6031C66.4147 41.6003 66.8795 41.6594 66.659 41.4996C66.5658 41.2525 66.4172 41.6034 66.412 41.6031C66.3456 41.5363 65.4597 41.2911 65.2625 41.2916C65.1561 41.2917 65.1727 41.4946 65.118 41.4908C63.8121 41.3966 62.621 41.236 61.3465 40.9625C61.3261 40.953 61.3878 40.7438 61.3368 40.7301C60.6176 40.532 60.1339 40.7422 59.4979 40.8326C58.8722 40.9251 58.4085 40.8319 58.0848 40.4303C57.6415 40.4412 56.9655 40.2324 56.5956 40.1139C56.2217 39.9953 56.1505 40.4149 56.117 40.4244C55.0984 40.6532 54.4648 40.3985 53.4071 40.3678C52.895 40.3514 51.8655 40.4421 51.3241 40.5162C50.8957 40.5738 50.6127 40.4902 50.2137 40.5797C50.16 40.5924 50.227 40.7774 50.2108 40.7857C49.7773 41.0413 49.9606 40.5665 49.8622 40.4898C49.5018 40.2148 49.2853 40.0694 48.7108 40.2613C48.5766 40.3075 48.2472 41.005 48.0106 41.068C47.7018 41.1484 47.7951 40.8988 47.4725 40.9908C47.4453 40.9994 47.4654 41.1441 47.2635 41.1598C46.3106 41.2356 45.2769 41.2819 44.2811 41.4381C44.1466 41.459 44.3512 41.6661 44.1571 41.6998C43.2498 41.8571 42.2377 42.0042 41.3241 42.0377C41.0994 42.045 41.2116 41.8613 41.1561 41.8209C40.8154 41.5783 40.461 42.0651 40.3924 42.0855C38.7706 42.5505 37.432 42.3752 35.7381 42.7974C35.6458 42.8226 34.981 43.3734 34.6073 43.025C34.5788 42.9995 34.2108 42.6453 33.9608 42.9508C33.9479 42.9717 34.1689 43.1507 33.8182 43.1715C33.4645 43.1924 32.9127 43.3928 32.4071 43.2144C32.2456 43.158 31.8487 42.7952 31.4168 43.1519C31.3857 43.1819 30.733 43.9529 30.4442 43.4732C30.3972 43.3923 30.4061 42.8674 29.8758 43.1695C29.774 43.2279 29.9711 43.3344 29.6971 43.4234C29.2737 43.5602 28.7052 43.4444 28.1893 43.693C28.0996 43.7377 27.7132 44.1052 27.3915 43.8375C27.3421 43.795 27.4331 43.6182 27.2665 43.6002C26.4686 43.5135 25.663 43.6201 24.8524 43.4664C24.5692 43.4117 24.7199 43.1331 24.4364 43.0435C24.1516 42.9543 23.5733 42.8466 23.2567 42.9527C22.9395 43.0594 23.2428 43.538 22.7723 43.5367C22.5932 43.5357 22.4132 43.5303 22.2332 43.5211C20.2734 43.4176 18.5141 42.982 16.8709 42.7047C16.6052 42.6596 16.8005 42.8525 16.409 42.7965C14.5966 42.5413 12.1078 42.2081 10.6961 41.4781C9.61039 40.9061 11.109 41.0871 10.2674 40.7457C9.86882 40.5824 9.29205 40.9606 9.19028 40.9469C8.19238 40.8157 7.75158 40.4228 6.74301 40.0963C6.55145 40.034 6.65209 40.306 6.48911 40.2496C5.93089 40.0574 5.43763 39.7212 4.97739 39.4986C4.77144 39.3992 4.73061 39.5615 4.55258 39.4488C4.06877 39.1473 3.59646 38.7673 3.24008 38.3101C3.21113 38.2695 3.60272 38.3102 3.27036 38.0514C3.00313 37.8398 2.74356 37.5683 2.48911 37.2955C2.18205 36.9732 1.86414 36.6152 1.54282 36.3023C1.35759 36.1179 1.01836 36.3075 0.953951 35.6754C0.94388 35.5299 1.41169 35.5134 0.77231 35.0357C0.649939 34.986 -0.24968 33.8775 0.0672318 33.2105C0.139463 33.0329 0.489069 32.6523 0.449068 32.3424C0.441621 32.2989 0.23197 32.4643 0.228365 32.1939C0.226072 31.2271 0.531475 30.2758 0.80649 29.4801C0.88446 29.2577 0.552171 29.498 0.679537 29.1646C1.06379 28.1896 1.67252 27.335 2.24985 26.6519C2.46002 26.406 2.46745 26.6822 2.49594 26.6793C2.96106 26.5609 2.78325 26.1265 2.82895 26.0289C3.15977 25.382 3.672 25.0853 4.09458 24.5474C4.21199 24.3994 3.97811 24.3653 3.99008 24.3258C4.13402 23.9204 4.19096 24.374 4.3895 24.2193C4.93596 23.7994 5.41568 23.2996 5.8895 22.8121C6.06183 22.6347 5.70384 22.6613 5.86118 22.5035C6.82386 21.5384 7.77665 20.7365 8.84751 20.0035C9.04645 19.8687 9.04324 20.0982 9.10629 20.0982C9.53618 20.1032 9.66857 19.5032 9.73325 19.4039C10.0238 18.9539 10.2763 18.949 10.6122 18.6441C12.2551 17.1482 14.4782 15.6118 16.159 14.4488C18.3604 12.9218 20.1307 11.8427 22.0858 10.2974C22.2124 10.1969 21.9423 10.1119 22.0497 10.023C23.4143 8.90447 24.8168 7.91219 26.0213 6.71835C26.1202 6.62012 25.8242 6.59275 25.9754 6.43124C26.2965 6.08622 26.6233 5.78507 27.0018 5.48202C27.1735 5.34588 27.1162 5.68755 27.286 5.54745C27.6859 5.20753 27.9307 4.93474 28.1463 4.53573C27.7833 4.33924 27.1034 4.08679 26.2323 3.85018C26.1224 3.81376 26.0793 3.34632 25.8006 3.40292C25.7663 3.52694 25.7511 3.67612 25.7274 3.81014C22.701 3.58176 19.7769 3.55675 16.6893 3.70956C16.5543 3.71777 16.8037 3.94458 16.5399 3.96054C14.8639 4.06524 13.7206 4.22665 12.1551 4.12557C12.003 4.1152 12.0424 3.68361 11.6004 3.78964C11.5226 3.8086 10.8436 3.9303 10.6707 4.04061C10.6484 4.05769 10.7938 4.24323 10.5702 4.27108C9.17541 4.43958 8.0302 4.51783 6.79672 4.53475C6.59992 4.53667 6.78311 4.30273 6.64243 4.30233C5.64093 4.30282 4.54107 4.59537 3.49887 4.52987C2.79938 4.48559 3.00611 4.09029 2.5936 3.77792C2.53365 3.7344 2.10188 3.77972 2.05258 3.57479C1.92851 3.05805 2.06629 2.45736 1.90903 1.90975C1.87533 1.7922 1.30509 1.99552 1.61606 1.66073C1.6407 1.63734 2.05057 1.48779 2.14145 1.37655C2.20513 1.2993 2.04845 1.10357 2.18442 0.997645C2.32083 0.891921 2.5054 1.04903 2.73422 0.91659C2.96168 0.782891 2.82814 0.554577 3.30161 0.467371C4.40373 0.266381 5.80656 0.171548 6.8309 0.153895C7.15211 0.147968 7.00667 0.298082 7.22739 0.300379C7.65883 0.304618 8.04328 0.19764 8.45786 0.215418C8.59428 0.222425 8.44977 0.44781 8.59165 0.45077C9.49655 0.44878 10.3605 0.3083 11.2332 0.271082ZM104.096 57.856C104.026 57.6426 103.521 57.5198 103.605 57.7838C103.673 57.9959 104.181 58.1213 104.096 57.856ZM99.8348 55.5191C99.4953 55.0103 98.8745 55.872 99.4901 55.9947C99.5264 56.0009 99.8532 55.5506 99.8348 55.5191ZM95.5086 53.2428C95.26 52.7202 94.7403 52.9822 94.9022 53.3678C95.0644 53.7534 95.5842 53.4017 95.5086 53.2428ZM23.3202 40.9459C22.9411 41.3091 24.2959 41.4429 24.0223 41.0152C24.002 40.9941 23.3441 40.9295 23.3202 40.9459ZM36.201 40.7789C36.1893 40.7696 35.9857 40.7904 35.9979 40.8512C36.0411 41.0494 36.3218 40.9507 36.201 40.7789ZM54.8944 39.6051C54.5389 39.3958 54.4778 40.1415 54.8641 39.9693C54.8828 39.9602 54.9123 39.6175 54.8944 39.6051ZM54.3954 38.69C54.2364 38.9255 54.8197 38.9517 54.701 38.7037C54.6883 38.6936 54.4022 38.6802 54.3954 38.69ZM4.26254 3.46932C4.25019 3.46097 3.96031 3.48594 3.95004 3.49667C3.81942 3.75171 4.4196 3.6989 4.26254 3.46932Z" fill="#DA4B21"/>
</svg>
