<svg width="120" height="72" viewBox="0 0 120 72" fill="none" xmlns="http://www.w3.org/2000/svg">
<path d="M0.0451096 65.692C-0.0680693 66.2029 0.0337648 66.7367 0.327336 67.1754C0.620852 67.6139 1.08232 67.9222 1.61054 68.0318L17.5539 71.3356L18.4084 67.482L4.45722 64.5914L7.44745 51.1031L3.4621 50.277L0.0451096 65.692ZM8.46991 62.3941C9.48039 61.6618 9.61284 60.521 8.54706 61.3561C8.35518 61.5073 9.14059 61.2922 8.92597 61.5318C8.53314 61.9692 7.9087 61.729 7.58515 62.3053C7.53061 62.4086 8.40134 62.4359 8.46991 62.3941ZM108.265 0.271097C104.274 0.126462 99.7808 -0.1469 95.5793 0.0982454C94.7556 0.146501 93.9275 0.261127 93.1896 0.391214C92.995 0.425125 92.8585 0.452014 92.6203 0.49473C92.3789 0.538279 92.1477 0.583863 91.9279 0.629495C91.4878 0.720852 91.0909 0.813942 90.7316 0.901956C90.5661 0.94253 90.6067 0.739215 90.5715 0.733011C90.3113 0.693972 90.1568 0.789903 90.1066 0.884378C90.0481 0.982928 90.0302 1.09984 89.8342 1.21446C89.445 1.44531 89.098 1.69639 88.7873 2.00547C88.3592 2.41376 88.0379 2.95081 87.9279 3.52305C87.817 4.08117 87.8916 4.62874 88.05 5.12266C88.1808 5.52885 88.3421 5.86895 88.5353 6.22032C88.8765 6.80305 88.2063 6.46215 88.7541 6.88633C88.788 6.90908 88.8643 6.68122 88.9699 6.78965C89.2028 7.03407 89.6166 7.57674 89.8322 7.78379C90.2533 8.19162 90.2879 8.22444 90.6281 8.55821C91.0741 8.99132 91.8339 9.54484 92.2775 9.98106C92.3818 10.0835 92.1043 10.1099 92.26 10.2877C92.4145 10.4652 92.916 10.8601 93.1184 10.9635C93.3176 11.0654 93.3462 10.8867 93.3986 10.8814C93.848 10.8553 94.146 11.6314 94.2092 11.6939C95.43 12.8821 96.7516 13.569 98.0383 14.525C99.02 15.2542 99.9871 16.063 100.933 16.7477C102.03 17.5406 103.025 18.1444 104.07 18.9576C104.18 19.0432 103.908 19.1321 104.041 19.2369C105.458 20.3451 106.905 21.4398 108.356 22.4391C108.501 22.5393 108.458 22.2351 108.613 22.3268C109.602 22.9223 111.129 23.7327 111.014 24.8668C111.591 25.3573 112.225 25.9353 112.799 26.2789C113.185 26.5187 113.061 26.0536 113.355 26.5133C113.419 26.6162 113.169 26.6348 113.276 26.7779C113.735 27.3954 114.229 27.8856 114.607 28.5758C114.676 28.7074 114.509 28.7778 114.506 28.8297C114.497 29.2555 115.138 29.47 115.225 29.5572C115.894 30.2282 116.105 30.9068 116.297 31.6676C116.34 31.851 116.061 31.6896 116.09 31.8609C116.234 32.7278 116.151 33.5013 115.84 34.2555C115.773 34.4188 116.028 34.3822 116.003 34.4684C115.861 34.8658 115.501 34.7087 115.288 35.0699C115.24 35.1473 115.399 35.2293 115.402 35.2545C115.407 35.6797 114.988 35.4849 114.934 35.5191C114.321 35.8919 113.94 36.6582 113.224 36.9674C113.138 37.0026 113.221 36.7128 112.985 36.8258C111.247 37.6377 109.454 38.2569 107.369 38.94C107.089 39.0341 107.328 39.1455 107.315 39.1705C107.11 39.544 106.828 39.172 106.736 39.1764C106.001 39.2224 105.351 39.7122 104.722 39.3131C101.873 39.9613 99.8779 40.0637 96.9787 40.483C96.207 40.5966 95.4565 40.7131 94.7043 40.8502C94.6637 40.8599 94.7469 41.0627 94.6623 41.0758C93.6395 41.2305 93.8243 40.8964 93.1574 40.5084C92.992 40.4119 92.4859 40.8911 92.4357 40.9254C92.2681 41.0543 92.4392 41.3673 92.383 41.3922C91.9134 41.5839 92.001 40.556 91.3889 40.5406C91.3721 40.5464 91.4443 40.7343 91.3928 40.7516C91.2308 40.8057 91.0745 40.7265 90.9162 40.7857C90.5568 40.9232 90.3937 41.4177 89.8527 41.0963C89.7853 41.0534 89.9227 40.4788 89.3732 40.4713C89.1536 40.4704 88.1877 40.3845 87.9103 40.3951C87.6371 40.4079 87.8021 40.6101 87.7844 40.6188C87.0263 40.7967 87.2944 40.9264 86.8869 41.2555C86.4784 41.5803 86.6747 40.7218 86.5353 40.607C86.395 40.494 85.8312 40.6348 85.6896 40.6891C85.5492 40.744 85.6993 40.8831 85.5764 40.9088C84.7613 41.0729 85.287 40.4351 85.049 40.2643C84.4911 39.86 83.9291 40.4377 83.3644 40.4205C83.2132 40.4154 83.3555 40.2867 83.2248 40.2535C82.7044 40.124 82.355 40.276 81.7814 39.9996C81.687 39.954 81.261 39.4938 80.9016 39.7272C80.8519 39.762 80.9512 39.9407 80.7209 39.941C80.3762 39.9417 79.7638 39.8802 79.4094 39.7691C79.1482 39.687 79.4962 39.4723 79.1457 39.5006C78.991 39.5138 79.2428 39.7112 78.9523 39.7223C78.6618 39.7331 77.9514 39.6144 77.6789 39.567C77.4083 39.5194 77.5869 39.343 77.5676 39.3258C77.4464 39.2279 76.9364 39.0514 76.8889 39.0445C74.555 38.6683 72.3532 38.7282 70.0646 38.442C69.8871 38.4198 70.0201 38.2176 69.9943 38.2106C69.3829 38.0775 69.8289 38.6768 69.3869 38.8375C69.4772 38.4099 69.2179 38.4698 68.7805 38.3981C68.57 38.3632 68.6934 38.2024 68.675 38.1842C68.3716 37.9136 68.1453 38.2327 68.0861 38.2975C67.8717 38.5349 67.6601 38.2361 67.5139 38.3961C67.3695 38.5558 67.6808 38.8097 67.2658 38.7936C67.153 38.6351 67.4767 38.2385 67.1594 38.1637C65.9496 37.8703 63.6982 38.2255 62.7521 38.3189C61.7874 38.4045 61.4656 38.4045 60.923 38.5055C59.9305 38.6966 60.269 38.3643 59.6203 38.2936C58.9636 38.2289 59.3597 38.9291 59.2863 39.0973C59.2144 39.2649 59.0994 39.1149 59.0041 39.2145C58.9098 39.314 59.1502 39.3935 58.9055 39.4566C58.6614 39.5179 57.9343 39.3323 57.8176 39.1822C57.5744 38.8619 57.8419 38.4473 57.1721 38.6793C57.1355 38.6943 57.2907 38.8653 57.1428 38.9078C55.9556 39.2425 54.7716 39.4731 53.6047 39.8609C53.4531 39.9133 53.6375 40.0936 53.55 40.1266C52.6296 40.4725 52.889 40.0426 52.2648 39.7721C52.507 40.2693 52.2939 40.6546 51.5549 40.8434C51.1117 40.9578 51.1166 40.7141 50.8019 40.6246C50.7061 40.5983 50.4445 40.8345 50.3605 40.7428C50.0831 40.4433 50.2681 39.9706 49.5607 40.3336C49.532 40.3516 49.687 40.5121 49.5773 40.5553C48.862 40.839 48.6676 40.5007 47.8361 40.7037C47.2132 40.8543 46.1986 41.422 45.4963 41.7018C45.7076 42.2696 44.9851 42.37 44.5812 42.0699C44.1484 42.2402 43.6611 42.3917 43.2482 42.6061C43.1073 42.6795 43.2631 42.8073 43.2521 42.8326C43.0686 43.217 42.7312 42.913 42.6271 42.9342C41.4929 43.199 40.789 43.8113 39.6896 43.94C39.6494 43.9419 39.4311 43.5803 39.2844 43.9732C39.2797 44 39.6747 44.0413 39.216 44.2496C38.7605 44.4564 37.9304 45.059 37.2512 45.1481C37.0812 45.1714 36.5568 45.0314 36.3557 45.4156C36.33 45.4675 36.4244 45.5572 36.3928 45.6451C36.2884 45.9268 36.0056 45.589 35.9279 46.0221C35.8498 46.4558 35.4921 46.9188 34.7346 47.0016C34.7101 47.0009 34.4019 46.7775 34.215 46.8727C33.9109 47.0275 33.5013 47.3039 33.174 47.4615C33.0184 47.5358 33.0246 47.3017 32.9963 47.3092C31.8975 47.7174 31.1798 48.2876 30.0988 48.9381C29.9047 49.0546 29.1927 49.1055 28.9025 49.5143C28.5843 49.9639 29.5139 50.6311 28.3986 50.9508C27.9508 51.079 26.7984 50.221 26.3918 51.2174C24.9563 51.8196 23.8461 52.8499 22.3019 53.4762C22.2284 53.5051 21.8513 53.3051 21.7131 53.3922C21.5071 53.5231 21.4772 53.7385 21.3322 53.8375C20.7255 54.2562 20.0642 54.4826 19.4523 54.8795C19.2203 55.03 19.3932 55.1306 19.1154 55.3111C18.8371 55.4917 18.5257 55.4102 18.1965 55.7438C17.9525 55.9943 17.8874 56.591 17.5607 56.859C17.3 56.4714 17.0533 56.6352 16.5353 56.8141C16.4361 56.8475 16.4424 56.6526 16.3908 56.6617C16.179 56.6962 16.0944 56.9076 15.8859 56.9313C15.8353 56.9364 15.7485 56.8036 15.7023 56.8004C15.306 56.7728 15.0469 57.3615 15.0031 57.4635C14.8339 57.8516 14.5839 57.7667 14.4055 57.9918C14.2282 58.2162 14.6317 58.0965 14.3957 58.315C13.9118 58.7641 13.1526 59.2246 12.6223 59.5797C12.4098 59.7204 12.4384 59.4483 12.4055 59.4635C11.9323 59.7081 11.6039 60.1946 11.1213 60.0055C11.4139 61.1267 10.7924 60.0949 10.2658 60.7086C10.2264 60.76 10.448 61.231 10.6848 61.1656C10.9223 61.099 11.1288 60.767 11.4631 60.6881C11.5424 60.6689 12.1717 60.8345 12.2394 60.8277C12.7515 60.7657 12.3833 60.0847 12.3791 60.0328C12.3631 59.4951 13.0751 59.6542 13.2297 59.5982C13.8829 59.3715 14.2982 58.9743 14.8254 58.777C15.1691 58.6481 15.4718 59.0565 15.6994 58.8941C16.454 58.3536 16.3497 57.5826 17.4016 57.6481C17.6261 57.6624 17.7672 58.2274 18.09 57.5133C18.1053 57.4697 18.3254 56.8663 18.7111 56.9244C18.7593 56.9327 18.8431 57.0702 18.8918 57.0572C19.2161 56.9607 19.3344 56.7372 19.6672 56.6061C20.0002 56.4751 20.4079 56.3348 20.7189 56.0836C20.9063 55.9324 21.0128 55.5175 21.0725 55.3951C21.2388 55.0479 21.7103 55.1721 21.7482 54.8512C21.787 54.5276 21.2543 54.3868 21.6164 53.9781C21.8468 54.3301 22.1037 54.6796 22.3449 55.0279C23.3049 54.4439 24.2941 53.7142 25.299 53.1666C25.425 53.0984 25.4097 53.3655 25.5471 53.2984C26.127 53.0118 26.5366 52.5992 27.1398 52.3395C27.6381 52.1223 28.2674 52.0511 28.7805 51.8434C28.8497 51.26 29.6433 51.0203 30.135 50.7135C30.3074 50.6059 30.2373 50.4988 30.3449 50.3951C30.7534 50.0078 30.7245 50.5004 30.8859 50.4928C31.5663 50.4624 31.2108 49.5631 31.9152 49.232C31.9563 49.2148 32.6321 49.4447 32.7092 49.4439C33.1927 49.435 32.696 49.2519 32.9221 49.0963C33.3369 48.813 33.5928 48.5508 34.173 48.4361C34.3442 48.4029 34.835 48.5196 35.0226 48.1578C35.0491 48.1096 34.9556 47.9675 34.9826 47.942C35.5015 47.5132 35.7428 47.9888 36.1506 47.9977C36.5578 48.0065 36.911 47.4414 36.9709 47.2975C37.1268 46.9256 36.7148 47.2845 36.6887 47.2672C36.384 47.0555 36.7786 46.9344 37.049 46.7828C36.8751 46.2885 37.2826 46.1397 37.3303 46.6275C37.3339 46.6809 37.0961 46.7355 37.049 46.7828C37.508 47.1374 37.9612 47.0051 38.2385 46.3609C38.373 46.0575 38.0388 45.9174 38.7912 45.6959C39.1296 45.5977 39.1478 45.9801 39.467 45.9508C40.1959 45.8832 40.8882 45.2356 41.549 45.0289C41.7876 44.9545 41.6359 45.2254 41.8 45.1822C42.2313 45.0683 42.5958 44.7681 43.0588 44.6725C43.1006 44.6655 43.0778 44.8923 43.2141 44.8443C44.2733 44.4688 45.0434 44.0494 46.1799 43.6588C46.7129 43.475 47.6816 43.2795 48.2043 43.0953C49.1392 42.7637 50.2581 42.1349 51.0695 41.9977C51.5998 41.9069 51.5528 42.1328 51.8156 42.2106C52.331 42.3583 52.9957 41.7016 53.0861 41.6031C53.0708 41.602 52.6228 41.6567 52.8391 41.4996C52.9316 41.2537 53.0788 41.5982 53.0861 41.6031C53.1501 41.5368 54.0372 41.2915 54.2355 41.2916C54.3421 41.2913 54.3258 41.4935 54.3801 41.4908C55.686 41.3966 56.8772 41.236 58.1516 40.9625C58.1731 40.9555 58.1108 40.7452 58.1613 40.7301C58.8805 40.5319 59.3642 40.7421 60.0002 40.8326C60.6258 40.9251 61.0896 40.8317 61.4133 40.4303C61.8564 40.4413 62.5324 40.2325 62.9025 40.1139C63.2758 39.9952 63.3475 40.4127 63.381 40.4244C64.3997 40.6533 65.0334 40.3986 66.091 40.3678C66.6028 40.3514 67.6323 40.4422 68.174 40.5162C68.6024 40.5739 68.8855 40.4903 69.2844 40.5797C69.3384 40.5917 69.2716 40.7763 69.2873 40.7857C69.7204 41.0412 69.5385 40.5676 69.6359 40.4898C69.9965 40.2147 70.2128 40.0695 70.7873 40.2613C70.9213 40.3067 71.2508 41.0045 71.4875 41.068C71.7966 41.1486 71.7032 40.899 72.0256 40.9908C72.0531 40.9986 72.0324 41.1439 72.2346 41.1598C73.1875 41.2356 74.2211 41.282 75.217 41.4381C75.352 41.4587 75.1473 41.6659 75.341 41.6998C76.2482 41.8571 77.2604 42.0042 78.174 42.0377C78.3986 42.0452 78.2875 41.862 78.342 41.8209C78.6823 41.578 79.0363 42.0639 79.1057 42.0856C80.7275 42.5506 82.0661 42.3753 83.76 42.7975C83.8512 42.8215 84.5166 43.373 84.8908 43.025C84.9168 43.002 85.2863 42.6441 85.5373 42.9508C85.5495 42.9721 85.3302 43.1506 85.6799 43.1715C86.0334 43.1923 86.5853 43.3926 87.091 43.2145C87.2522 43.1584 87.6491 42.795 88.0812 43.152C88.1113 43.1806 88.7647 43.9523 89.0539 43.4732C89.1011 43.3934 89.0915 42.8672 89.6223 43.1695C89.7245 43.2279 89.5273 43.3344 89.801 43.4234C90.2244 43.5603 90.7928 43.4444 91.3088 43.693C91.3981 43.7372 91.7848 44.1048 92.1066 43.8375C92.1567 43.7956 92.0653 43.6185 92.2316 43.6002C93.0295 43.5134 93.8351 43.62 94.6457 43.4664C94.9293 43.4119 94.7788 43.1333 95.0617 43.0436C95.3462 42.9544 95.9246 42.8467 96.2414 42.9527C96.5589 43.0592 96.2557 43.5378 96.7258 43.5367C96.9049 43.5357 97.0849 43.5303 97.2648 43.5211C99.2246 43.4177 100.984 42.982 102.627 42.7047C102.893 42.6593 102.698 42.8524 103.089 42.7965C104.901 42.5413 107.39 42.208 108.802 41.4781C109.888 40.906 108.39 41.0869 109.231 40.7457C109.629 40.5823 110.205 40.9594 110.308 40.9469C111.306 40.8158 111.747 40.4229 112.755 40.0963C112.947 40.0336 112.847 40.3053 113.009 40.2496C113.567 40.0575 114.06 39.7212 114.521 39.4986C114.727 39.3989 114.768 39.561 114.946 39.4488C115.429 39.1474 115.902 38.7672 116.258 38.3102C116.289 38.269 115.895 38.3105 116.228 38.0514C116.495 37.8399 116.755 37.5683 117.009 37.2955C117.316 36.9733 117.634 36.6152 117.955 36.3023C118.14 36.1174 118.48 36.3073 118.544 35.6754C118.555 35.5297 118.087 35.5134 118.726 35.0357C118.847 34.9882 119.748 33.8783 119.431 33.2106C119.359 33.033 119.009 32.6523 119.049 32.3424C119.056 32.2979 119.266 32.4644 119.27 32.1939C119.272 31.2271 118.967 30.2758 118.692 29.4801C118.614 29.2576 118.946 29.4978 118.819 29.1647C118.434 28.1895 117.826 27.335 117.248 26.652C117.037 26.4051 117.031 26.6845 117.002 26.6793C116.538 26.5609 116.715 26.1268 116.669 26.0289C116.338 25.382 115.826 25.0854 115.404 24.5475C115.286 24.3997 115.519 24.3652 115.508 24.3258C115.364 23.9202 115.307 24.3743 115.109 24.2193C114.562 23.7995 114.082 23.2996 113.609 22.8121C113.436 22.6347 113.794 22.6614 113.637 22.5035C112.674 21.5384 111.721 20.7365 110.651 20.0035C110.451 19.8686 110.455 20.0991 110.392 20.0982C109.962 20.1028 109.83 19.5033 109.765 19.4039C109.474 18.9539 109.222 18.949 108.886 18.6441C107.243 17.1482 105.02 15.6118 103.339 14.4488C101.138 12.9219 99.3674 11.8427 97.4123 10.2975C97.2858 10.1969 97.556 10.1119 97.4484 10.0231C96.0838 8.90448 94.6812 7.91221 93.4768 6.71836C93.3779 6.62014 93.6741 6.59281 93.5226 6.43125C93.2016 6.0862 92.8749 5.78511 92.4963 5.48203C92.3246 5.34604 92.382 5.68778 92.2121 5.54746C91.8123 5.2076 91.5673 4.93468 91.3518 4.53575C91.7146 4.33927 92.3947 4.08684 93.2658 3.8502C93.3759 3.81478 93.4188 3.34671 93.6975 3.40293C93.7318 3.52695 93.747 3.67618 93.7707 3.81016C96.7971 3.58175 99.7212 3.55678 102.809 3.70957C102.944 3.71741 102.695 3.94437 102.958 3.96055C104.634 4.06524 105.778 4.22662 107.343 4.12559C107.495 4.11591 107.456 3.68382 107.898 3.78965C107.974 3.80838 108.654 3.9302 108.827 4.04063C108.85 4.0571 108.704 4.24304 108.928 4.2711C110.323 4.4396 111.468 4.51783 112.701 4.53477C112.899 4.53697 112.716 4.30322 112.856 4.30235C113.857 4.30276 114.957 4.59528 115.999 4.52989C116.699 4.48574 116.492 4.09031 116.904 3.77793C116.963 3.73401 117.396 3.77962 117.446 3.57481C117.57 3.05813 117.432 2.45735 117.589 1.90977C117.622 1.79155 118.193 1.99591 117.882 1.66075C117.857 1.63723 117.447 1.48775 117.357 1.37657C117.293 1.29929 117.45 1.10356 117.314 0.997659C117.177 0.892042 116.993 1.0492 116.764 0.916605C116.537 0.782863 116.67 0.554528 116.196 0.467386C115.094 0.266415 113.691 0.171545 112.667 0.153909C112.346 0.148116 112.492 0.298261 112.271 0.300394C111.839 0.304559 111.455 0.19758 111.04 0.215433C110.904 0.222909 111.049 0.448213 110.906 0.450784C110.002 0.448752 109.138 0.308286 108.265 0.271097ZM15.4025 57.8561C15.4713 57.6423 15.9773 57.5193 15.8928 57.7838C15.8242 57.9955 15.3182 58.1206 15.4025 57.8561ZM19.6633 55.5191C20.0028 55.0095 20.6244 55.8722 20.008 55.9947C19.9697 55.9973 19.6481 55.5541 19.6633 55.5191ZM23.9894 53.2428C24.2381 52.7196 24.7582 52.982 24.5959 53.3678C24.4336 53.7523 23.9151 53.4019 23.9894 53.2428ZM96.1779 40.9459C96.5572 41.3091 95.2034 41.4424 95.4758 41.0152C95.4896 40.9945 96.1515 40.9298 96.1779 40.9459ZM83.2971 40.7789C83.3048 40.7688 83.5132 40.7895 83.5002 40.8512C83.4567 41.0487 83.1771 40.9503 83.2971 40.7789ZM64.6037 39.6051C64.9596 39.395 65.0207 40.1419 64.634 39.9693C64.6154 39.9584 64.5867 39.6226 64.6037 39.6051ZM65.1027 38.69C65.2615 38.9253 64.6793 38.9512 64.7971 38.7037C64.8043 38.6935 65.0958 38.6801 65.1027 38.69ZM115.236 3.46934C115.242 3.46011 115.537 3.48581 115.548 3.49668C115.678 3.75142 115.08 3.6985 115.236 3.46934Z" fill="black"/>
<path d="M0.0451096 65.692C-0.0680693 66.2029 0.0337648 66.7367 0.327336 67.1754C0.620852 67.6139 1.08232 67.9222 1.61054 68.0318L17.5539 71.3356L18.4084 67.482L4.45722 64.5914L7.44745 51.1031L3.4621 50.277L0.0451096 65.692ZM8.46991 62.3941C9.48039 61.6618 9.61284 60.521 8.54706 61.3561C8.35518 61.5073 9.14059 61.2922 8.92597 61.5318C8.53314 61.9692 7.9087 61.729 7.58515 62.3053C7.53061 62.4086 8.40134 62.4359 8.46991 62.3941ZM108.265 0.271097C104.274 0.126462 99.7808 -0.1469 95.5793 0.0982454C94.7556 0.146501 93.9275 0.261127 93.1896 0.391214C92.995 0.425125 92.8585 0.452014 92.6203 0.49473C92.3789 0.538279 92.1477 0.583863 91.9279 0.629495C91.4878 0.720852 91.0909 0.813942 90.7316 0.901956C90.5661 0.94253 90.6067 0.739215 90.5715 0.733011C90.3113 0.693972 90.1568 0.789903 90.1066 0.884378C90.0481 0.982928 90.0302 1.09984 89.8342 1.21446C89.445 1.44531 89.098 1.69639 88.7873 2.00547C88.3592 2.41376 88.0379 2.95081 87.9279 3.52305C87.817 4.08117 87.8916 4.62874 88.05 5.12266C88.1808 5.52885 88.3421 5.86895 88.5353 6.22032C88.8765 6.80305 88.2063 6.46215 88.7541 6.88633C88.788 6.90908 88.8643 6.68122 88.9699 6.78965C89.2028 7.03407 89.6166 7.57674 89.8322 7.78379C90.2533 8.19162 90.2879 8.22444 90.6281 8.55821C91.0741 8.99132 91.8339 9.54484 92.2775 9.98106C92.3818 10.0835 92.1043 10.1099 92.26 10.2877C92.4145 10.4652 92.916 10.8601 93.1184 10.9635C93.3176 11.0654 93.3462 10.8867 93.3986 10.8814C93.848 10.8553 94.146 11.6314 94.2092 11.6939C95.43 12.8821 96.7516 13.569 98.0383 14.525C99.02 15.2542 99.9871 16.063 100.933 16.7477C102.03 17.5406 103.025 18.1444 104.07 18.9576C104.18 19.0432 103.908 19.1321 104.041 19.2369C105.458 20.3451 106.905 21.4398 108.356 22.4391C108.501 22.5393 108.458 22.2351 108.613 22.3268C109.602 22.9223 111.129 23.7327 111.014 24.8668C111.591 25.3573 112.225 25.9353 112.799 26.2789C113.185 26.5187 113.061 26.0536 113.355 26.5133C113.419 26.6162 113.169 26.6348 113.276 26.7779C113.735 27.3954 114.229 27.8856 114.607 28.5758C114.676 28.7074 114.509 28.7778 114.506 28.8297C114.497 29.2555 115.138 29.47 115.225 29.5572C115.894 30.2282 116.105 30.9068 116.297 31.6676C116.34 31.851 116.061 31.6896 116.09 31.8609C116.234 32.7278 116.151 33.5013 115.84 34.2555C115.773 34.4188 116.028 34.3822 116.003 34.4684C115.861 34.8658 115.501 34.7087 115.288 35.0699C115.24 35.1473 115.399 35.2293 115.402 35.2545C115.407 35.6797 114.988 35.4849 114.934 35.5191C114.321 35.8919 113.94 36.6582 113.224 36.9674C113.138 37.0026 113.221 36.7128 112.985 36.8258C111.247 37.6377 109.454 38.2569 107.369 38.94C107.089 39.0341 107.328 39.1455 107.315 39.1705C107.11 39.544 106.828 39.172 106.736 39.1764C106.001 39.2224 105.351 39.7122 104.722 39.3131C101.873 39.9613 99.8779 40.0637 96.9787 40.483C96.207 40.5966 95.4565 40.7131 94.7043 40.8502C94.6637 40.8599 94.7469 41.0627 94.6623 41.0758C93.6395 41.2305 93.8243 40.8964 93.1574 40.5084C92.992 40.4119 92.4859 40.8911 92.4357 40.9254C92.2681 41.0543 92.4392 41.3673 92.383 41.3922C91.9134 41.5839 92.001 40.556 91.3889 40.5406C91.3721 40.5464 91.4443 40.7343 91.3928 40.7516C91.2308 40.8057 91.0745 40.7265 90.9162 40.7857C90.5568 40.9232 90.3937 41.4177 89.8527 41.0963C89.7853 41.0534 89.9227 40.4788 89.3732 40.4713C89.1536 40.4704 88.1877 40.3845 87.9103 40.3951C87.6371 40.4079 87.8021 40.6101 87.7844 40.6188C87.0263 40.7967 87.2944 40.9264 86.8869 41.2555C86.4784 41.5803 86.6747 40.7218 86.5353 40.607C86.395 40.494 85.8312 40.6348 85.6896 40.6891C85.5492 40.744 85.6993 40.8831 85.5764 40.9088C84.7613 41.0729 85.287 40.4351 85.049 40.2643C84.4911 39.86 83.9291 40.4377 83.3644 40.4205C83.2132 40.4154 83.3555 40.2867 83.2248 40.2535C82.7044 40.124 82.355 40.276 81.7814 39.9996C81.687 39.954 81.261 39.4938 80.9016 39.7272C80.8519 39.762 80.9512 39.9407 80.7209 39.941C80.3762 39.9417 79.7638 39.8802 79.4094 39.7691C79.1482 39.687 79.4962 39.4723 79.1457 39.5006C78.991 39.5138 79.2428 39.7112 78.9523 39.7223C78.6618 39.7331 77.9514 39.6144 77.6789 39.567C77.4083 39.5194 77.5869 39.343 77.5676 39.3258C77.4464 39.2279 76.9364 39.0514 76.8889 39.0445C74.555 38.6683 72.3532 38.7282 70.0646 38.442C69.8871 38.4198 70.0201 38.2176 69.9943 38.2106C69.3829 38.0775 69.8289 38.6768 69.3869 38.8375C69.4772 38.4099 69.2179 38.4698 68.7805 38.3981C68.57 38.3632 68.6934 38.2024 68.675 38.1842C68.3716 37.9136 68.1453 38.2327 68.0861 38.2975C67.8717 38.5349 67.6601 38.2361 67.5139 38.3961C67.3695 38.5558 67.6808 38.8097 67.2658 38.7936C67.153 38.6351 67.4767 38.2385 67.1594 38.1637C65.9496 37.8703 63.6982 38.2255 62.7521 38.3189C61.7874 38.4045 61.4656 38.4045 60.923 38.5055C59.9305 38.6966 60.269 38.3643 59.6203 38.2936C58.9636 38.2289 59.3597 38.9291 59.2863 39.0973C59.2144 39.2649 59.0994 39.1149 59.0041 39.2145C58.9098 39.314 59.1502 39.3935 58.9055 39.4566C58.6614 39.5179 57.9343 39.3323 57.8176 39.1822C57.5744 38.8619 57.8419 38.4473 57.1721 38.6793C57.1355 38.6943 57.2907 38.8653 57.1428 38.9078C55.9556 39.2425 54.7716 39.4731 53.6047 39.8609C53.4531 39.9133 53.6375 40.0936 53.55 40.1266C52.6296 40.4725 52.889 40.0426 52.2648 39.7721C52.507 40.2693 52.2939 40.6546 51.5549 40.8434C51.1117 40.9578 51.1166 40.7141 50.8019 40.6246C50.7061 40.5983 50.4445 40.8345 50.3605 40.7428C50.0831 40.4433 50.2681 39.9706 49.5607 40.3336C49.532 40.3516 49.687 40.5121 49.5773 40.5553C48.862 40.839 48.6676 40.5007 47.8361 40.7037C47.2132 40.8543 46.1986 41.422 45.4963 41.7018C45.7076 42.2696 44.9851 42.37 44.5812 42.0699C44.1484 42.2402 43.6611 42.3917 43.2482 42.6061C43.1073 42.6795 43.2631 42.8073 43.2521 42.8326C43.0686 43.217 42.7312 42.913 42.6271 42.9342C41.4929 43.199 40.789 43.8113 39.6896 43.94C39.6494 43.9419 39.4311 43.5803 39.2844 43.9732C39.2797 44 39.6747 44.0413 39.216 44.2496C38.7605 44.4564 37.9304 45.059 37.2512 45.1481C37.0812 45.1714 36.5568 45.0314 36.3557 45.4156C36.33 45.4675 36.4244 45.5572 36.3928 45.6451C36.2884 45.9268 36.0056 45.589 35.9279 46.0221C35.8498 46.4558 35.4921 46.9188 34.7346 47.0016C34.7101 47.0009 34.4019 46.7775 34.215 46.8727C33.9109 47.0275 33.5013 47.3039 33.174 47.4615C33.0184 47.5358 33.0246 47.3017 32.9963 47.3092C31.8975 47.7174 31.1798 48.2876 30.0988 48.9381C29.9047 49.0546 29.1927 49.1055 28.9025 49.5143C28.5843 49.9639 29.5139 50.6311 28.3986 50.9508C27.9508 51.079 26.7984 50.221 26.3918 51.2174C24.9563 51.8196 23.8461 52.8499 22.3019 53.4762C22.2284 53.5051 21.8513 53.3051 21.7131 53.3922C21.5071 53.5231 21.4772 53.7385 21.3322 53.8375C20.7255 54.2562 20.0642 54.4826 19.4523 54.8795C19.2203 55.03 19.3932 55.1306 19.1154 55.3111C18.8371 55.4917 18.5257 55.4102 18.1965 55.7438C17.9525 55.9943 17.8874 56.591 17.5607 56.859C17.3 56.4714 17.0533 56.6352 16.5353 56.8141C16.4361 56.8475 16.4424 56.6526 16.3908 56.6617C16.179 56.6962 16.0944 56.9076 15.8859 56.9313C15.8353 56.9364 15.7485 56.8036 15.7023 56.8004C15.306 56.7728 15.0469 57.3615 15.0031 57.4635C14.8339 57.8516 14.5839 57.7667 14.4055 57.9918C14.2282 58.2162 14.6317 58.0965 14.3957 58.315C13.9118 58.7641 13.1526 59.2246 12.6223 59.5797C12.4098 59.7204 12.4384 59.4483 12.4055 59.4635C11.9323 59.7081 11.6039 60.1946 11.1213 60.0055C11.4139 61.1267 10.7924 60.0949 10.2658 60.7086C10.2264 60.76 10.448 61.231 10.6848 61.1656C10.9223 61.099 11.1288 60.767 11.4631 60.6881C11.5424 60.6689 12.1717 60.8345 12.2394 60.8277C12.7515 60.7657 12.3833 60.0847 12.3791 60.0328C12.3631 59.4951 13.0751 59.6542 13.2297 59.5982C13.8829 59.3715 14.2982 58.9743 14.8254 58.777C15.1691 58.6481 15.4718 59.0565 15.6994 58.8941C16.454 58.3536 16.3497 57.5826 17.4016 57.6481C17.6261 57.6624 17.7672 58.2274 18.09 57.5133C18.1053 57.4697 18.3254 56.8663 18.7111 56.9244C18.7593 56.9327 18.8431 57.0702 18.8918 57.0572C19.2161 56.9607 19.3344 56.7372 19.6672 56.6061C20.0002 56.4751 20.4079 56.3348 20.7189 56.0836C20.9063 55.9324 21.0128 55.5175 21.0725 55.3951C21.2388 55.0479 21.7103 55.1721 21.7482 54.8512C21.787 54.5276 21.2543 54.3868 21.6164 53.9781C21.8468 54.3301 22.1037 54.6796 22.3449 55.0279C23.3049 54.4439 24.2941 53.7142 25.299 53.1666C25.425 53.0984 25.4097 53.3655 25.5471 53.2984C26.127 53.0118 26.5366 52.5992 27.1398 52.3395C27.6381 52.1223 28.2674 52.0511 28.7805 51.8434C28.8497 51.26 29.6433 51.0203 30.135 50.7135C30.3074 50.6059 30.2373 50.4988 30.3449 50.3951C30.7534 50.0078 30.7245 50.5004 30.8859 50.4928C31.5663 50.4624 31.2108 49.5631 31.9152 49.232C31.9563 49.2148 32.6321 49.4447 32.7092 49.4439C33.1927 49.435 32.696 49.2519 32.9221 49.0963C33.3369 48.813 33.5928 48.5508 34.173 48.4361C34.3442 48.4029 34.835 48.5196 35.0226 48.1578C35.0491 48.1096 34.9556 47.9675 34.9826 47.942C35.5015 47.5132 35.7428 47.9888 36.1506 47.9977C36.5578 48.0065 36.911 47.4414 36.9709 47.2975C37.1268 46.9256 36.7148 47.2845 36.6887 47.2672C36.384 47.0555 36.7786 46.9344 37.049 46.7828C36.8751 46.2885 37.2826 46.1397 37.3303 46.6275C37.3339 46.6809 37.0961 46.7355 37.049 46.7828C37.508 47.1374 37.9612 47.0051 38.2385 46.3609C38.373 46.0575 38.0388 45.9174 38.7912 45.6959C39.1296 45.5977 39.1478 45.9801 39.467 45.9508C40.1959 45.8832 40.8882 45.2356 41.549 45.0289C41.7876 44.9545 41.6359 45.2254 41.8 45.1822C42.2313 45.0683 42.5958 44.7681 43.0588 44.6725C43.1006 44.6655 43.0778 44.8923 43.2141 44.8443C44.2733 44.4688 45.0434 44.0494 46.1799 43.6588C46.7129 43.475 47.6816 43.2795 48.2043 43.0953C49.1392 42.7637 50.2581 42.1349 51.0695 41.9977C51.5998 41.9069 51.5528 42.1328 51.8156 42.2106C52.331 42.3583 52.9957 41.7016 53.0861 41.6031C53.0708 41.602 52.6228 41.6567 52.8391 41.4996C52.9316 41.2537 53.0788 41.5982 53.0861 41.6031C53.1501 41.5368 54.0372 41.2915 54.2355 41.2916C54.3421 41.2913 54.3258 41.4935 54.3801 41.4908C55.686 41.3966 56.8772 41.236 58.1516 40.9625C58.1731 40.9555 58.1108 40.7452 58.1613 40.7301C58.8805 40.5319 59.3642 40.7421 60.0002 40.8326C60.6258 40.9251 61.0896 40.8317 61.4133 40.4303C61.8564 40.4413 62.5324 40.2325 62.9025 40.1139C63.2758 39.9952 63.3475 40.4127 63.381 40.4244C64.3997 40.6533 65.0334 40.3986 66.091 40.3678C66.6028 40.3514 67.6323 40.4422 68.174 40.5162C68.6024 40.5739 68.8855 40.4903 69.2844 40.5797C69.3384 40.5917 69.2716 40.7763 69.2873 40.7857C69.7204 41.0412 69.5385 40.5676 69.6359 40.4898C69.9965 40.2147 70.2128 40.0695 70.7873 40.2613C70.9213 40.3067 71.2508 41.0045 71.4875 41.068C71.7966 41.1486 71.7032 40.899 72.0256 40.9908C72.0531 40.9986 72.0324 41.1439 72.2346 41.1598C73.1875 41.2356 74.2211 41.282 75.217 41.4381C75.352 41.4587 75.1473 41.6659 75.341 41.6998C76.2482 41.8571 77.2604 42.0042 78.174 42.0377C78.3986 42.0452 78.2875 41.862 78.342 41.8209C78.6823 41.578 79.0363 42.0639 79.1057 42.0856C80.7275 42.5506 82.0661 42.3753 83.76 42.7975C83.8512 42.8215 84.5166 43.373 84.8908 43.025C84.9168 43.002 85.2863 42.6441 85.5373 42.9508C85.5495 42.9721 85.3302 43.1506 85.6799 43.1715C86.0334 43.1923 86.5853 43.3926 87.091 43.2145C87.2522 43.1584 87.6491 42.795 88.0812 43.152C88.1113 43.1806 88.7647 43.9523 89.0539 43.4732C89.1011 43.3934 89.0915 42.8672 89.6223 43.1695C89.7245 43.2279 89.5273 43.3344 89.801 43.4234C90.2244 43.5603 90.7928 43.4444 91.3088 43.693C91.3981 43.7372 91.7848 44.1048 92.1066 43.8375C92.1567 43.7956 92.0653 43.6185 92.2316 43.6002C93.0295 43.5134 93.8351 43.62 94.6457 43.4664C94.9293 43.4119 94.7788 43.1333 95.0617 43.0436C95.3462 42.9544 95.9246 42.8467 96.2414 42.9527C96.5589 43.0592 96.2557 43.5378 96.7258 43.5367C96.9049 43.5357 97.0849 43.5303 97.2648 43.5211C99.2246 43.4177 100.984 42.982 102.627 42.7047C102.893 42.6593 102.698 42.8524 103.089 42.7965C104.901 42.5413 107.39 42.208 108.802 41.4781C109.888 40.906 108.39 41.0869 109.231 40.7457C109.629 40.5823 110.205 40.9594 110.308 40.9469C111.306 40.8158 111.747 40.4229 112.755 40.0963C112.947 40.0336 112.847 40.3053 113.009 40.2496C113.567 40.0575 114.06 39.7212 114.521 39.4986C114.727 39.3989 114.768 39.561 114.946 39.4488C115.429 39.1474 115.902 38.7672 116.258 38.3102C116.289 38.269 115.895 38.3105 116.228 38.0514C116.495 37.8399 116.755 37.5683 117.009 37.2955C117.316 36.9733 117.634 36.6152 117.955 36.3023C118.14 36.1174 118.48 36.3073 118.544 35.6754C118.555 35.5297 118.087 35.5134 118.726 35.0357C118.847 34.9882 119.748 33.8783 119.431 33.2106C119.359 33.033 119.009 32.6523 119.049 32.3424C119.056 32.2979 119.266 32.4644 119.27 32.1939C119.272 31.2271 118.967 30.2758 118.692 29.4801C118.614 29.2576 118.946 29.4978 118.819 29.1647C118.434 28.1895 117.826 27.335 117.248 26.652C117.037 26.4051 117.031 26.6845 117.002 26.6793C116.538 26.5609 116.715 26.1268 116.669 26.0289C116.338 25.382 115.826 25.0854 115.404 24.5475C115.286 24.3997 115.519 24.3652 115.508 24.3258C115.364 23.9202 115.307 24.3743 115.109 24.2193C114.562 23.7995 114.082 23.2996 113.609 22.8121C113.436 22.6347 113.794 22.6614 113.637 22.5035C112.674 21.5384 111.721 20.7365 110.651 20.0035C110.451 19.8686 110.455 20.0991 110.392 20.0982C109.962 20.1028 109.83 19.5033 109.765 19.4039C109.474 18.9539 109.222 18.949 108.886 18.6441C107.243 17.1482 105.02 15.6118 103.339 14.4488C101.138 12.9219 99.3674 11.8427 97.4123 10.2975C97.2858 10.1969 97.556 10.1119 97.4484 10.0231C96.0838 8.90448 94.6812 7.91221 93.4768 6.71836C93.3779 6.62014 93.6741 6.59281 93.5226 6.43125C93.2016 6.0862 92.8749 5.78511 92.4963 5.48203C92.3246 5.34604 92.382 5.68778 92.2121 5.54746C91.8123 5.2076 91.5673 4.93468 91.3518 4.53575C91.7146 4.33927 92.3947 4.08684 93.2658 3.8502C93.3759 3.81478 93.4188 3.34671 93.6975 3.40293C93.7318 3.52695 93.747 3.67618 93.7707 3.81016C96.7971 3.58175 99.7212 3.55678 102.809 3.70957C102.944 3.71741 102.695 3.94437 102.958 3.96055C104.634 4.06524 105.778 4.22662 107.343 4.12559C107.495 4.11591 107.456 3.68382 107.898 3.78965C107.974 3.80838 108.654 3.9302 108.827 4.04063C108.85 4.0571 108.704 4.24304 108.928 4.2711C110.323 4.4396 111.468 4.51783 112.701 4.53477C112.899 4.53697 112.716 4.30322 112.856 4.30235C113.857 4.30276 114.957 4.59528 115.999 4.52989C116.699 4.48574 116.492 4.09031 116.904 3.77793C116.963 3.73401 117.396 3.77962 117.446 3.57481C117.57 3.05813 117.432 2.45735 117.589 1.90977C117.622 1.79155 118.193 1.99591 117.882 1.66075C117.857 1.63723 117.447 1.48775 117.357 1.37657C117.293 1.29929 117.45 1.10356 117.314 0.997659C117.177 0.892042 116.993 1.0492 116.764 0.916605C116.537 0.782863 116.67 0.554528 116.196 0.467386C115.094 0.266415 113.691 0.171545 112.667 0.153909C112.346 0.148116 112.492 0.298261 112.271 0.300394C111.839 0.304559 111.455 0.19758 111.04 0.215433C110.904 0.222909 111.049 0.448213 110.906 0.450784C110.002 0.448752 109.138 0.308286 108.265 0.271097ZM15.4025 57.8561C15.4713 57.6423 15.9773 57.5193 15.8928 57.7838C15.8242 57.9955 15.3182 58.1206 15.4025 57.8561ZM19.6633 55.5191C20.0028 55.0095 20.6244 55.8722 20.008 55.9947C19.9697 55.9973 19.6481 55.5541 19.6633 55.5191ZM23.9894 53.2428C24.2381 52.7196 24.7582 52.982 24.5959 53.3678C24.4336 53.7523 23.9151 53.4019 23.9894 53.2428ZM96.1779 40.9459C96.5572 41.3091 95.2034 41.4424 95.4758 41.0152C95.4896 40.9945 96.1515 40.9298 96.1779 40.9459ZM83.2971 40.7789C83.3048 40.7688 83.5132 40.7895 83.5002 40.8512C83.4567 41.0487 83.1771 40.9503 83.2971 40.7789ZM64.6037 39.6051C64.9596 39.395 65.0207 40.1419 64.634 39.9693C64.6154 39.9584 64.5867 39.6226 64.6037 39.6051ZM65.1027 38.69C65.2615 38.9253 64.6793 38.9512 64.7971 38.7037C64.8043 38.6935 65.0958 38.6801 65.1027 38.69ZM115.236 3.46934C115.242 3.46011 115.537 3.48581 115.548 3.49668C115.678 3.75142 115.08 3.6985 115.236 3.46934Z" fill="#DA4B21"/>
</svg>
